HIERARCHY
ROOT Hips
{
  OFFSET 279.157 85.6768 304.565
  CHANNELS 6 Xposition Yposition Zposition Zrotation Xrotation Yrotation
  JOINT LeftUpLeg
  {
    OFFSET 8.64259 1.95398 -2.38835
    CHANNELS 3 Zrotation Xrotation Yrotation
    JOINT LeftLeg
    {
      OFFSET 43.7702 0 0
      CHANNELS 3 Zrotation Xrotation Yrotation
      JOINT LeftFoot
      {
        OFFSET 40.6238 0 0
        CHANNELS 3 Zrotation Xrotation Yrotation
        JOINT LeftToeBase
        {
          OFFSET 12.7242 0 0
          CHANNELS 3 Zrotation Xrotation Yrotation
          End Site
          {
            OFFSET 0 0 0
          }
        }
      }
    }
  }
  JOINT RightUpLeg
  {
    OFFSET -8.2249 1.95398 -2.59336
    CHANNELS 3 Zrotation Xrotation Yrotation
    JOINT RightLeg
    {
      OFFSET 43.5653 0 0
      CHANNELS 3 Zrotation Xrotation Yrotation
      JOINT RightFoot
      {
        OFFSET 40.6238 0 0
        CHANNELS 3 Zrotation Xrotation Yrotation
        JOINT RightToeBase
        {
          OFFSET 12.7242 0 0
          CHANNELS 3 Zrotation Xrotation Yrotation
          End Site
          {
            OFFSET 0 0 0
          }
        }
      }
    }
  }
  JOINT Spine
  {
    OFFSET 0.165834 0.87714 6.61349
    CHANNELS 3 Zrotation Xrotation Yrotation
    JOINT Spine1
    {
      OFFSET 7.38963 1.71661e-005 0
      CHANNELS 3 Zrotation Xrotation Yrotation
      JOINT Spine2
      {
        OFFSET 11.9445 1.14441e-005 0
        CHANNELS 3 Zrotation Xrotation Yrotation
        JOINT Spine3
        {
          OFFSET 14.7254 4.19617e-005 0
          CHANNELS 3 Zrotation Xrotation Yrotation
          JOINT Spine4
          {
            OFFSET 10.9679 0 0
            CHANNELS 3 Zrotation Xrotation Yrotation
            JOINT RightShoulder
            {
              OFFSET 2.46616 -1.6653 3.69651
              CHANNELS 3 Zrotation Xrotation Yrotation
              JOINT RightArm
              {
                OFFSET 13.0012 0 0
                CHANNELS 3 Zrotation Xrotation Yrotation
                JOINT RightForeArm
                {
                  OFFSET 28.7848 1.52588e-005 0
                  CHANNELS 3 Zrotation Xrotation Yrotation
                  JOINT RightHand
                  {
                    OFFSET 26.5688 1.52588e-005 0
                    CHANNELS 3 Zrotation Xrotation Yrotation
                    End Site
                    {
                      OFFSET 0 0 0
                    }
                  }
                }
              }
            }
            JOINT LeftShoulder
            {
              OFFSET 2.38034 -1.29275 -3.7523
              CHANNELS 3 Zrotation Xrotation Yrotation
              JOINT LeftArm
              {
                OFFSET 16.3182 6.10351e-005 0
                CHANNELS 3 Zrotation Xrotation Yrotation
                JOINT LeftForeArm
                {
                  OFFSET 27.0901 0 0
                  CHANNELS 3 Zrotation Xrotation Yrotation
                  JOINT LeftHand
                  {
                    OFFSET 24.5451 1.52588e-005 0
                    CHANNELS 3 Zrotation Xrotation Yrotation
                    End Site
                    {
                      OFFSET 0 0 0
                    }
                  }
                }
              }
            }
            JOINT Neck
            {
              OFFSET 5.0226 -0.0266342 0
              CHANNELS 3 Zrotation Xrotation Yrotation
              JOINT Head
              {
                OFFSET 6.69364 2.86102e-005 0
                CHANNELS 3 Zrotation Xrotation Yrotation
                End Site
                {
                  OFFSET 0 0 0
                }
              }
            }
          }
        }
      }
    }
  }
}
MOTION
Frames:	10
Frame Time:	0.0416667
97.8244 27.8571 111.013 -24.1557 -13.7629 -99.6863 -126.529 56.6351 91.1769 -105.627 2.38245 1.52507 64.3692 0.999363 4.42085 1.00964 -17.3932 2.70244 138.662 11.6473 60.7208 -37.485 -17.9765 13.0379 44.6734 7.41835 5.62264 31.3002 -1.26369 3.8675 -1.41704 8.92425 -87.4201 9.0359 -1.67506 5.22488 -2.64474 -1.4438 5.29325 -25.1227 -3.16644 4.48235 -5.11003 -3.16645 4.48234 92.935 -12.4598 -108.071 34.0453 32.1129 -33.2148 -71.0193 15.8972 -113.565 -24.2462 -5.5213 6.27513 -90.0696 -39.2213 76.0123 -0.153629 -35.6658 -39.2485 48.2873 -16.0821 -113.196 11.5463 0.854304 3.35889 50.6776 -3.33475 -6.37724 -12.2264 0.787692 -0.80574 
97.1188 27.1689 110.539 -24.9728 -12.9828 -101.363 -129.554 53.8887 94.6851 -104.297 5.40473 0.642606 63.936 1.07982 4.49717 0.701481 -17.7715 3.00481 137.885 11.176 59.0775 -38.018 -7.2884 12.9047 46.4582 6.27701 4.5058 29.6355 -0.693068 3.30755 -1.51586 8.7688 -87.7199 9.35798 -1.99861 4.66591 -2.32007 -1.79155 4.7491 -24.8186 -3.3076 3.85133 -4.80589 -3.3076 3.85134 93.641 -11.4515 -106.689 30.5555 18.8233 -37.071 -75.2677 18.0298 -105.79 -19.5174 -4.42917 4.555 -87.0811 -27.8167 78.2734 -10.5075 -50.7521 -47.3259 47.3475 -7.64862 -109.897 6.51341 0.244765 0.122153 48.8973 0.668098 -0.240062 -10.7435 0.97173 -2.31342 
96.7229 26.6666 109.943 -24.3118 -11.0594 -100.584 -127.647 54.472 96.2782 -103.621 4.19785 0.0517011 63.1576 0.89824 4.79789 0.449687 -17.3912 2.07551 139.57 10.6246 60.3612 -38.3362 -6.61184 12.919 48.035 5.67285 3.85732 27.8717 -0.228321 3.94823 -1.45398 8.44176 -88.3465 10.0104 -2.14584 3.4585 -1.66368 -1.99164 3.54946 -24.1889 -3.08571 2.65431 -4.17626 -3.08571 2.65431 93.8073 -11.225 -106.347 25.1672 10.7624 -41.293 -74.6383 14.4555 -101.593 -20.4921 -4.17877 2.22272 -83.4336 -10.0958 81.0655 -24.6051 -56.7997 -63.5193 48.5286 4.98608 -99.9962 0.670818 -0.187923 -6.9505 45.207 5.35574 4.61983 -8.70519 2.74054 -3.65638 
96.6875 26.7425 109.233 -19.0771 -7.80043 -97.8181 -120.934 58.8815 93.1551 -103.367 5.06479 -0.6327 62.6219 0.993486 4.99685 1.58271 -17.2186 3.05065 143.045 13.7089 66.0302 -41.1881 -3.10954 13.278 51.2591 4.06469 2.28668 27.8828 -0.381034 5.03918 -1.13733 7.82803 -89.0676 11.2328 -1.82976 2.0377 -0.438622 -1.73833 2.1162 -22.9773 -2.35751 1.39359 -2.96464 -2.3575 1.39358 93.9913 -11.226 -105.827 19.4343 4.22434 -45.8128 -77.0105 13.6783 -97.2018 -17.869 -3.71052 1.47168 -81.555 1.5141 82.2943 -31.6063 -55.0753 -74.8256 49.9449 11.9883 -87.2996 -6.72955 0.464226 -17.5615 44.7494 8.43692 8.42155 -8.6121 3.71119 -4.84807 
96.9085 27.2467 108.595 -12.5978 -3.50337 -93.4154 -108.705 65.9169 85.2072 -103.554 2.335 -1.03778 61.7353 0.434146 3.65104 0.551528 -17.7809 2.84965 147.082 16.6255 74.7153 -43.5047 3.39261 13.9967 59.1368 -0.459797 -0.227533 28.3415 -0.547483 5.28647 -0.637115 7.18807 -89.7851 12.501 -1.16343 0.56349 0.830445 -1.13751 0.614149 -21.7087 -1.27898 0.18772 -1.69606 -1.279 0.187726 93.88 -12.4189 -105.511 14.6338 -0.720371 -49.56 -80.5225 14.7743 -93.4147 -12.234 -2.99503 -0.0455158 -80.451 6.89262 84.5677 -33.5643 -50.4255 -80.5284 51.4625 17.413 -78.795 -3.69422 0.132492 -23.523 45.3709 10.41 10.227 -9.38339 4.64299 -5.87576 
96.4844 27.4165 108.787 -11.9242 -1.69981 -95.0471 -107.251 63.3578 85.3204 -102.346 1.70013 -2.27486 61.8102 0.642604 3.25764 -0.461267 -17.9132 1.95184 147.015 18.6467 74.8977 -46.0558 8.17111 14.1271 66.6138 -5.41172 -0.508028 28.2309 -0.473003 4.96504 -0.609592 7.16729 -89.8138 12.5422 -1.12228 0.502092 0.871623 -1.09911 0.550983 -21.6673 -1.22129 0.14154 -1.65465 -1.2213 0.141541 93.2307 -13.9007 -106.498 10.0035 -2.81765 -51.8831 -82.308 15.0819 -91.3729 -8.45948 -2.57476 -0.770268 -80.0465 8.99536 85.3932 -34.0503 -50.4925 -79.8461 49.1627 17.2587 -77.4586 -5.56972 0.372987 -20.7643 45.6427 10.9784 10.3728 -9.15671 5.04987 -5.67792 
95.8724 26.9442 108.875 -11.4568 -0.297854 -96.1783 -106.933 61.1875 86.8148 -101.307 1.76199 -3.36149 61.8742 0.852397 3.20927 0.485853 -18.0162 3.17068 147.095 19.1201 74.9841 -46.2991 12.0414 14.9299 69.1599 -6.76444 -1.32929 27.7106 -0.343435 5.11056 -0.657761 7.19867 -89.8203 12.4796 -1.22131 0.499445 0.809132 -1.19813 0.552721 -21.7306 -1.31494 0.109247 -1.7179 -1.31495 0.109248 92.983 -14.9083 -106.629 6.64869 -5.61153 -54.3902 -85.3239 15.2257 -89.9361 -7.31539 -2.44872 -0.833899 -79.6092 9.81565 87.3084 -35.598 -51.0855 -78.9787 47.5137 16.1083 -78.4782 -2.96765 -0.0181708 -19.2904 48.1003 11.1351 8.36336 -9.84263 6.01278 -4.52448 
94.8987 25.9357 109.063 -10.9286 0.778243 -96.8493 -108.296 58.7053 89.9561 -99.9701 3.08079 -4.54553 62 0.972246 2.4592 5.24201 -16.3273 5.83678 147.475 18.5782 74.8141 -45.3691 14.7188 15.5991 73.0556 -8.87439 -1.44001 26.9064 -0.157277 5.4943 -0.827235 7.14576 -89.8866 12.5865 -1.5892 0.411865 0.916398 -1.56953 0.481432 -21.6265 -1.63949 -0.0849105 -1.61389 -1.63949 -0.0849127 92.2458 -15.3555 -108.295 4.11946 -7.88311 -56.3597 -91.3633 24.5619 -81.8986 5.17699 -1.75186 -5.47433 -79.3931 9.8573 88.2546 -41.7165 -51.275 -78.032 47.9581 13.9713 -84.1525 -1.95244 -0.145332 -17.2465 49.4486 11.7891 7.29971 -9.90728 7.13442 -4.70882 
93.8292 25.6503 109.492 -9.22422 2.43779 -97.4639 -112.203 56.01 93.8854 -97.3182 4.3844 -6.06328 59.8183 -1.27647 -2.10353 13.3129 -12.1447 8.46123 149.148 19.1191 75.9088 -44.1241 17.1622 15.1188 79.6852 -12.6507 -0.859394 26.5332 0.0387005 4.90097 -0.849644 7.00182 -89.9762 12.8733 -1.67555 0.249141 1.20342 -1.66299 0.322646 -21.3403 -1.67295 -0.266115 -1.32768 -1.67294 -0.266099 90.1324 -18.0059 -112.055 -2.20793 -10.5064 -55.3776 -87.4839 19.4804 -85.1027 -4.51755 -2.10456 0.337999 -79.4276 9.27424 88.3179 -40.2319 -55.4905 -69.9885 46.7804 10.2124 -91.1153 -1.80015 -0.145406 -15.3258 50.4394 12.799 7.39178 -10.3483 8.05301 -5.79288 
92.4226 26.5379 110.731 -7.33787 4.06535 -98.9349 -119.776 51.7817 97.8797 -91.3351 14.4923 -8.96412 57.6687 -2.50141 -4.37088 19.5451 -8.50813 9.92532 150.954 23.1243 75.5531 -43.8221 17.3317 14.1896 74.815 -9.34525 -0.919975 24.2782 0.809497 4.285 -0.719551 6.90857 -90.0235 13.0584 -1.43953 0.130338 1.3882 -1.43242 0.193583 -21.1532 -1.41215 -0.308408 -1.14052 -1.41216 -0.308426 88.1826 -21.348 -114.644 -7.55196 -13.4367 -54.11 -87.0594 22.8302 -83.9018 -4.73467 -2.08822 -0.0639544 -80.0742 8.52787 85.4747 -34.044 -60.6917 -58.993 43.5607 8.0833 -95.3093 2.22965 -0.4067 -12.0713 51.4881 13.4041 7.51381 -10.8701 8.41287 -4.9961 
